<svg width="28" height="28" viewBox="0 0 28 28" fill="none" xmlns="http://www.w3.org/2000/svg">
<g clip-path="url(#clip0_0_86)">
<path d="M23.3465 23.5008C23.1903 23.5008 23.0342 23.4893 22.8781 23.4604C17.483 22.4833 11.2727 20.6447 5.3861 18.2858C4.05035 17.7481 3.40272 16.2391 3.94049 14.9036C4.47826 13.568 5.98748 12.9205 7.32323 13.4582C12.8918 15.6899 18.7436 17.4243 23.8033 18.3436C25.22 18.598 26.1567 19.9509 25.9023 21.3674C25.6768 22.622 24.5839 23.5008 23.3465 23.5008Z" fill="#0AA7BD"/>
<path d="M23.1496 13.3089C23.086 13.3089 23.0282 13.3089 22.9646 13.3032C14.1984 12.6903 7.25363 11.7132 1.73715 10.3141C0.343573 9.96138 -0.500668 8.54489 -0.142155 7.15152C0.210576 5.75815 1.62728 4.91981 3.02086 5.27249C8.23086 6.59648 14.8749 7.52732 23.3289 8.11705C24.7629 8.21534 25.8443 9.45838 25.746 10.8922C25.6477 12.2625 24.5027 13.3089 23.1496 13.3089Z" fill="#0AA7BD"/>
<path d="M4.20621 10.5164C3.36775 10.5164 2.59868 10.4701 1.94526 10.3603C0.528559 10.1232 -0.425548 8.77611 -0.188467 7.35962C0.0486143 5.94312 1.39593 4.98916 2.81263 5.2262C4.16573 5.45747 7.69304 5.2898 13.5275 4.14504C18.0032 3.26624 22.3285 2.081 24.0516 1.25423C25.3469 0.635601 26.9024 1.18485 27.5211 2.47994C28.1398 3.77502 27.5905 5.33027 26.2952 5.9489C23.6989 7.19195 18.3328 8.4986 14.5279 9.25021C11.8911 9.77055 7.51956 10.5164 4.20621 10.5164Z" fill="url(#paint0_linear_0_86)"/>
<path d="M11.0005 26.7287C9.61845 26.7287 8.47352 25.6475 8.40413 24.2541C8.33474 22.8203 9.43919 21.6004 10.879 21.531C15.187 21.3228 18.9629 20.3458 22.097 18.6228C23.3576 17.929 24.9362 18.3916 25.6301 19.652C26.324 20.9124 25.8614 22.4907 24.6008 23.1845C20.7671 25.289 16.2336 26.48 11.1277 26.7287C11.0814 26.7287 11.0409 26.7287 11.0005 26.7287Z" fill="url(#paint1_linear_0_86)"/>
<path d="M6.3571 18.4779C5.02713 18.4779 3.89377 17.4661 3.76656 16.1132C3.63356 14.6851 4.68597 13.4132 6.12002 13.286C13.2267 12.6327 16.7309 11.2624 21.8946 8.42944C23.1552 7.74143 24.7338 8.19818 25.4277 9.45857C26.1158 10.719 25.659 12.2973 24.3984 12.9911C21.7211 14.4597 19.3677 15.6276 16.5921 16.541C13.7066 17.4892 10.532 18.1021 6.59997 18.4663C6.51901 18.4721 6.43806 18.4779 6.3571 18.4779Z" fill="url(#paint2_linear_0_86)"/>
</g>
<defs>
<linearGradient id="paint0_linear_0_86" x1="-0.212354" y1="5.69811" x2="27.7514" y2="5.94622" gradientUnits="userSpaceOnUse">
<stop stop-color="#09A7BC"/>
<stop offset="1" stop-color="#2EC0EE"/>
</linearGradient>
<linearGradient id="paint1_linear_0_86" x1="8.40871" y1="22.4612" x2="25.9384" y2="22.5713" gradientUnits="userSpaceOnUse">
<stop stop-color="#09A7BC"/>
<stop offset="1" stop-color="#2EC0EE"/>
</linearGradient>
<linearGradient id="paint2_linear_0_86" x1="3.76484" y1="13.2282" x2="25.7297" y2="13.3687" gradientUnits="userSpaceOnUse">
<stop stop-color="#09A7BC"/>
<stop offset="1" stop-color="#2EC0EE"/>
</linearGradient>
<clipPath id="clip0_0_86">
<rect width="28" height="28" fill="white"/>
</clipPath>
</defs>
</svg>
