<svg width="1366" height="761" viewBox="0 0 1366 761" fill="none" xmlns="http://www.w3.org/2000/svg">
<g clip-path="url(#clip0_0_47)">
<rect width="1366" height="761" fill="white"/>
<g clip-path="url(#clip1_0_47)">
<path d="M1452.62 743.482C1450.57 743.482 1448.51 743.33 1446.45 742.949C1375.35 730.071 1293.5 705.841 1215.92 674.753C1198.32 667.666 1189.78 647.779 1196.87 630.177C1203.96 612.576 1223.85 604.042 1241.45 611.128C1314.84 640.54 1391.96 663.399 1458.64 675.515C1477.32 678.867 1489.66 696.697 1486.31 715.365C1483.34 731.9 1468.93 743.482 1452.62 743.482Z" fill="#0AA7BD"/>
<path d="M1450.03 609.147C1449.2 609.147 1448.43 609.147 1447.59 609.071C1332.06 600.994 1240.54 588.117 1167.83 569.677C1149.47 565.029 1138.34 546.361 1143.07 527.997C1147.72 509.634 1166.39 498.585 1184.75 503.233C1253.42 520.682 1340.98 532.95 1452.4 540.722C1471.3 542.018 1485.55 558.4 1484.25 577.297C1482.96 595.355 1467.87 609.147 1450.03 609.147Z" fill="#0AA7BD"/>
<path d="M1200.38 572.344C1189.33 572.344 1179.19 571.734 1170.58 570.287C1151.91 567.163 1139.33 549.409 1142.46 530.74C1145.58 512.072 1163.34 499.5 1182.01 502.624C1199.84 505.672 1246.33 503.462 1323.22 488.375C1382.21 476.793 1439.21 461.173 1461.92 450.276C1478.99 442.123 1499.49 449.362 1507.65 466.43C1515.8 483.498 1508.56 503.995 1491.49 512.148C1457.27 528.531 1386.55 545.751 1336.41 555.657C1301.66 562.515 1244.04 572.344 1200.38 572.344Z" fill="url(#paint0_linear_0_47)"/>
<path d="M1289.92 786C1271.71 786 1256.62 771.751 1255.7 753.388C1254.79 734.491 1269.34 718.413 1288.32 717.499C1345.09 714.756 1394.86 701.879 1436.16 679.172C1452.78 670.028 1473.58 676.124 1482.73 692.735C1491.87 709.346 1485.78 730.148 1469.16 739.291C1418.64 767.027 1358.89 782.724 1291.6 786C1290.99 786 1290.45 786 1289.92 786Z" fill="url(#paint1_linear_0_47)"/>
<path d="M1228.72 677.267C1211.2 677.267 1196.26 663.933 1194.58 646.102C1192.83 627.282 1206.7 610.519 1225.6 608.842C1319.26 600.232 1365.44 582.173 1433.5 544.837C1450.11 535.769 1470.91 541.789 1480.06 558.4C1489.13 575.011 1483.11 595.813 1466.49 604.956C1431.21 624.31 1400.19 639.702 1363.61 651.741C1325.59 664.237 1283.75 672.314 1231.93 677.115C1230.86 677.191 1229.79 677.267 1228.72 677.267Z" fill="url(#paint2_linear_0_47)"/>
</g>
<path d="M733.472 719.653C726.685 719.653 719.899 719.15 713.113 717.893C478.61 675.386 208.669 595.404 -47.1978 492.785C-105.258 469.394 -133.408 403.748 -110.033 345.647C-86.6586 287.547 -21.0582 259.377 37.0019 282.768C279.045 379.854 533.403 455.309 753.328 495.3C814.907 506.367 855.624 565.222 844.565 626.844C834.763 681.423 787.259 719.653 733.472 719.653Z" fill="#0AA7BD"/>
<path d="M724.926 276.229C722.161 276.229 719.648 276.229 716.883 275.977C335.848 249.316 33.9858 206.81 -205.795 145.943C-266.368 130.6 -303.064 68.9784 -287.481 8.36279C-272.149 -52.2529 -210.57 -88.7228 -149.997 -73.3803C76.4626 -15.7829 365.255 24.7114 732.718 50.3662C795.051 54.642 842.052 108.718 837.779 171.094C833.506 230.704 783.74 276.229 724.926 276.229Z" fill="#0AA7BD"/>
<path d="M-98.4717 154.746C-134.916 154.746 -168.345 152.734 -196.747 147.955C-258.325 137.643 -299.797 79.0392 -289.492 17.4174C-279.187 -44.2043 -220.624 -85.7046 -159.045 -75.3924C-100.231 -65.3317 53.0878 -72.6257 306.692 -122.426C501.231 -160.657 689.235 -212.218 764.135 -248.185C820.436 -275.097 888.047 -251.203 914.941 -194.863C941.835 -138.523 917.957 -70.8651 861.656 -43.9528C748.804 10.1234 515.558 66.9663 350.174 99.6636C235.562 122.3 45.5475 154.746 -98.4717 154.746Z" fill="url(#paint3_linear_0_47)"/>
<path d="M196.856 860C136.785 860 87.019 812.966 84.0029 752.351C80.9868 689.974 128.993 636.904 191.577 633.886C378.828 624.832 542.954 582.325 679.182 507.373C733.974 477.191 802.591 497.312 832.752 552.143C862.913 606.974 842.806 675.638 788.013 705.82C621.373 797.372 424.321 849.185 202.385 860C200.374 860 198.615 860 196.856 860Z" fill="url(#paint4_linear_0_47)"/>
<path d="M-4.97232 501.085C-62.7811 501.085 -112.044 457.069 -117.574 398.214C-123.355 336.09 -77.6103 280.756 -15.2774 275.223C293.622 246.801 445.936 187.191 670.385 63.9481C725.177 34.0175 793.794 53.8874 823.955 108.718C853.865 163.549 834.009 232.213 779.216 262.395C662.845 326.281 560.548 377.087 439.904 416.827C314.484 458.076 176.497 484.736 5.58408 500.582C2.06528 500.833 -1.45352 501.085 -4.97232 501.085Z" fill="url(#paint5_linear_0_47)"/>
<circle cx="1351.5" cy="-0.5" r="49.5" fill="url(#paint6_linear_0_47)"/>
</g>
<defs>
<linearGradient id="paint0_linear_0_47" x1="1142.14" y1="508.843" x2="1510.68" y2="512.113" gradientUnits="userSpaceOnUse">
<stop stop-color="#09A7BC"/>
<stop offset="1" stop-color="#2EC0EE"/>
</linearGradient>
<linearGradient id="paint1_linear_0_47" x1="1255.76" y1="729.759" x2="1486.79" y2="731.209" gradientUnits="userSpaceOnUse">
<stop stop-color="#09A7BC"/>
<stop offset="1" stop-color="#2EC0EE"/>
</linearGradient>
<linearGradient id="paint2_linear_0_47" x1="1194.56" y1="608.08" x2="1484.04" y2="609.932" gradientUnits="userSpaceOnUse">
<stop stop-color="#09A7BC"/>
<stop offset="1" stop-color="#2EC0EE"/>
</linearGradient>
<linearGradient id="paint3_linear_0_47" x1="-117.648" y1="272.707" x2="837.085" y2="278.809" gradientUnits="userSpaceOnUse">
<stop stop-color="#09A7BC"/>
<stop offset="1" stop-color="#2EC0EE"/>
</linearGradient>
<linearGradient id="paint4_linear_0_47" x1="-117.648" y1="272.707" x2="837.085" y2="278.809" gradientUnits="userSpaceOnUse">
<stop stop-color="#09A7BC"/>
<stop offset="1" stop-color="#2EC0EE"/>
</linearGradient>
<linearGradient id="paint5_linear_0_47" x1="-117.648" y1="272.707" x2="837.085" y2="278.809" gradientUnits="userSpaceOnUse">
<stop stop-color="#09A7BC"/>
<stop offset="1" stop-color="#2EC0EE"/>
</linearGradient>
<linearGradient id="paint6_linear_0_47" x1="1302.04" y1="-1.12498" x2="1400.92" y2="-0.826811" gradientUnits="userSpaceOnUse">
<stop stop-color="#09A7BC"/>
<stop offset="1" stop-color="#2EC0EE"/>
</linearGradient>
<clipPath id="clip0_0_47">
<rect width="1366" height="761" fill="white"/>
</clipPath>
<clipPath id="clip1_0_47">
<rect width="369" height="339" fill="white" transform="translate(1142 447)"/>
</clipPath>
</defs>
</svg>
