<svg width="33" height="32" viewBox="0 0 33 32" fill="none" xmlns="http://www.w3.org/2000/svg">
<path d="M10.0296 22.6172H12.8741V13.3746H10.0296V22.6172Z" fill="#9197B5"/>
<path d="M9.91229 10.7666C9.91229 11.7141 10.4261 12.1888 11.4518 12.1888C12.4794 12.1888 12.9914 11.7159 12.9914 10.7683C12.9914 9.82078 12.4776 9.34433 11.4518 9.34433C11.0466 9.33318 10.6532 9.48198 10.3567 9.75856C10.2142 9.88446 10.1007 10.0398 10.0239 10.2138C9.9472 10.3878 9.90911 10.5764 9.91229 10.7666Z" fill="#9197B5"/>
<path d="M20.5203 22.6172H23.4234H23.4252V17.1666C23.4252 15.8617 23.1194 14.8643 22.5043 14.1728C21.8927 13.4812 21.0945 13.1363 20.1043 13.1363C18.8012 13.1363 17.8536 13.6288 17.2012 14.6172L17.0234 13.3746H14.5345C14.5718 13.9274 14.5932 14.9141 14.5932 16.3363V22.6172H17.4963V17.2839C17.4963 16.9301 17.5372 16.6919 17.6136 16.5728C17.8536 15.8226 18.3461 15.4474 19.0963 15.4474C20.0438 15.4474 20.5203 16.1194 20.5203 17.4617V22.6172Z" fill="#9197B5"/>
<circle cx="16.668" cy="16" r="15.5" stroke="#9197B5"/>
</svg>
