<svg width="32" height="32" viewBox="0 0 32 32" fill="none" xmlns="http://www.w3.org/2000/svg">
<path d="M14.9218 18.5833C14.5138 20.7849 14.0178 22.8969 12.5394 24.0009C12.085 20.6729 13.2098 18.1705 13.7314 15.5161C12.8418 13.9737 13.8386 10.8665 15.7154 11.6329C18.0274 12.5737 13.7154 17.3705 16.6114 17.9689C19.6322 18.5961 20.8674 12.5705 18.9922 10.6089C16.285 7.78013 11.109 10.5449 11.7458 14.5961C11.901 15.5881 12.8946 15.8873 12.1426 17.2537C10.4098 16.8585 9.89296 15.4505 9.95856 13.5737C10.0658 10.5017 12.6386 8.35293 15.221 8.05373C18.485 7.67773 21.5474 9.28893 21.9714 12.4505C22.4466 16.0185 20.4978 19.8841 17.0066 19.6057C16.0626 19.5305 15.6626 19.0457 14.9218 18.5817V18.5833Z" fill="#9197B5"/>
<circle cx="16" cy="16" r="15.5" stroke="#9197B5"/>
</svg>
