<svg width="33" height="32" viewBox="0 0 33 32" fill="none" xmlns="http://www.w3.org/2000/svg">
<path d="M24.332 11.1012C23.7432 11.3572 23.1112 11.5332 22.4472 11.61C23.1256 11.21 23.644 10.5764 23.8904 9.82275C23.244 10.1995 22.5386 10.4645 21.804 10.6068C21.495 10.2829 21.1233 10.0253 20.7115 9.84982C20.2997 9.67432 19.8565 9.58454 19.4088 9.58595C17.596 9.58595 16.1272 11.034 16.1272 12.818C16.1272 13.0708 16.156 13.3172 16.212 13.554C14.9118 13.4922 13.6386 13.1601 12.4739 12.5788C11.3091 11.9976 10.2783 11.1799 9.44723 10.178C9.15533 10.6693 9.00165 11.2304 9.00243 11.802C9.00243 12.922 9.58323 13.914 10.4632 14.4916C9.94234 14.4752 9.43261 14.3365 8.97523 14.0868V14.1268C8.98017 14.8779 9.24531 15.6041 9.7255 16.1817C10.2057 16.7593 10.8712 17.1527 11.6088 17.2948C11.1246 17.4228 10.6179 17.4414 10.1256 17.3492C10.3402 17.9953 10.7507 18.5587 11.3001 18.961C11.8494 19.3632 12.5104 19.5845 13.1912 19.594C12.0232 20.494 10.5891 20.9803 9.11443 20.9764C8.85043 20.9764 8.58963 20.9604 8.33203 20.9316C9.83679 21.884 11.5816 22.3885 13.3624 22.386C19.4008 22.386 22.7016 17.4612 22.7016 13.1892L22.6904 12.77C23.3341 12.3176 23.8903 11.7522 24.332 11.1012Z" fill="#9197B5"/>
<circle cx="16.332" cy="16" r="15.5" stroke="#9197B5"/>
</svg>
